<svg width="117" height="99" viewBox="0 0 117 99" fill="none" xmlns="http://www.w3.org/2000/svg">
<g clip-path="url(#clip0_2980_90293)">
<path opacity="0.5" d="M117 87.7388H0V92H117V87.7388Z" fill="url(#paint0_linear_2980_90293)"/>
<path d="M97.7968 92.0001H22.6483C18.8311 92.0001 15.7383 88.8974 15.7383 85.0682V25.4105L45.5706 32.1068H97.7968C99.7152 32.1068 101.262 33.6581 101.262 35.5826V88.5439C101.262 90.4487 99.7152 92.0001 97.7968 92.0001Z" fill="url(#paint1_linear_2980_90293)"/>
<path d="M22.6483 18.2233H91.0434C92.9618 18.2233 94.5082 19.7746 94.5082 21.699V32.0871H22.6483C18.8311 32.0871 15.7383 28.9844 15.7383 25.1552C15.7383 21.3259 18.8311 18.2233 22.6483 18.2233Z" fill="#08154D"/>
<path d="M57.1005 32.0871L70.9596 1.96375L26.0349 11.3699C24.1165 11.7627 22.8833 13.6478 23.2944 15.5723L26.72 32.0871H57.1005Z" fill="#676F8C"/>
<path d="M74.3266 29.0433C75.3054 28.847 76.2645 29.004 77.0867 29.4361C77.6739 28.7095 78.4765 28.1793 79.4553 27.9633C79.7098 27.9044 79.9838 27.8847 80.2383 27.8847L74.6594 1.17822L70.9597 1.96371L57.1006 32.1067H71.1359C71.5078 30.5947 72.7019 29.3772 74.3266 29.0433Z" fill="#676F8C"/>
<path d="M84.075 2.84743C83.6835 0.922992 81.8043 -0.314148 79.8859 0.0982325L74.6594 1.17828L70.9597 1.96376L57.1006 32.1068H90.1432L84.075 2.84743Z" fill="url(#paint2_linear_2980_90293)"/>
<path d="M77.0669 29.4362C77.3018 29.554 77.5171 29.6914 77.7129 29.8485C77.5171 29.6914 77.3018 29.554 77.0669 29.4362Z" fill="#676F8C"/>
<path d="M77.0669 29.4362C77.3018 29.554 77.5171 29.6914 77.7129 29.8485C77.5171 29.6914 77.3018 29.554 77.0669 29.4362Z" fill="url(#paint3_linear_2980_90293)"/>
<path d="M84.3488 31.2034C83.9377 29.2201 82.176 27.8455 80.2185 27.8847C79.964 27.8847 79.7095 27.924 79.4355 27.9633C78.4567 28.1597 77.6541 28.7095 77.0669 29.4361C77.3018 29.5539 77.5171 29.6913 77.7129 29.8484C78.4176 30.3983 78.9461 31.1641 79.181 32.0871H84.4271C84.4467 31.7925 84.4075 31.498 84.3488 31.2034Z" fill="#676F8C"/>
<path d="M77.067 29.4361C76.2448 29.0041 75.2857 28.8274 74.3265 29.0434C72.7213 29.3772 71.5272 30.6143 71.1357 32.1068H76.1274C76.1274 31.1053 76.4797 30.1823 77.067 29.4361Z" fill="#C5C9D8"/>
<path d="M77.7128 29.8485C77.5171 29.6914 77.3017 29.554 77.0668 29.4362C76.46 30.1824 76.1077 31.1053 76.1272 32.0872H79.2005C78.9656 31.1642 78.4175 30.3984 77.7128 29.8485Z" fill="#888EA5"/>
<path d="M43.0847 31.3998L42.243 27.3153C42.0668 26.4905 41.2642 25.9603 40.4421 26.1174L32.8861 27.6884C32.0639 27.8651 31.5354 28.6702 31.692 29.495L32.2205 32.0674H43.0651C43.1238 31.8711 43.1238 31.6354 43.0847 31.3998Z" fill="#676F8C"/>
<path d="M43.0847 31.3998L42.243 27.3153C42.0668 26.4905 41.2642 25.9603 40.4421 26.1174L32.8861 27.6884C32.0639 27.8651 31.5354 28.6702 31.692 29.495L32.2205 32.0674H43.0651C43.1238 31.8711 43.1238 31.6354 43.0847 31.3998Z" fill="url(#paint4_linear_2980_90293)"/>
</g>
<g clip-path="url(#clip1_2980_90293)">
<path d="M96.0001 99.048C105.968 99.048 114.048 90.9677 114.048 81C114.048 71.0324 105.968 62.952 96.0001 62.952C86.0325 62.952 77.9521 71.0324 77.9521 81C77.9521 90.9677 86.0325 99.048 96.0001 99.048Z" fill="url(#paint5_linear_2980_90293)"/>
<path fill-rule="evenodd" clip-rule="evenodd" d="M102.046 89.2527L87.7471 74.9535L89.9532 72.7473L104.252 87.0465L102.046 89.2527Z" fill="white"/>
<path fill-rule="evenodd" clip-rule="evenodd" d="M87.7471 87.0465L102.046 72.7473L104.252 74.9535L89.9532 89.2527L87.7471 87.0465Z" fill="white"/>
</g>
<defs>
<linearGradient id="paint0_linear_2980_90293" x1="0" y1="89.8694" x2="116.992" y2="89.8694" gradientUnits="userSpaceOnUse">
<stop offset="0.03" stop-opacity="0"/>
<stop offset="0.5"/>
<stop offset="0.95" stop-opacity="0.08"/>
<stop offset="0.97" stop-opacity="0"/>
</linearGradient>
<linearGradient id="paint1_linear_2980_90293" x1="15.7344" y1="58.7014" x2="101.258" y2="58.7014" gradientUnits="userSpaceOnUse">
<stop stop-color="#142A84"/>
<stop offset="0.02" stop-color="#192F8E"/>
<stop offset="0.06" stop-color="#21399F"/>
<stop offset="0.1" stop-color="#2740AB"/>
<stop offset="0.17" stop-color="#2B44B3"/>
<stop offset="0.33" stop-color="#2C46B5"/>
<stop offset="1" stop-color="#2C46B5"/>
</linearGradient>
<linearGradient id="paint2_linear_2980_90293" x1="73.6303" y1="-9.74646" x2="73.6303" y2="41.3164" gradientUnits="userSpaceOnUse">
<stop stop-color="#C5C9D8"/>
<stop offset="1" stop-color="#676F8C"/>
</linearGradient>
<linearGradient id="paint3_linear_2980_90293" x1="79.4496" y1="39.5412" x2="69.8199" y2="-6.47568" gradientUnits="userSpaceOnUse">
<stop stop-color="#C5C9D8"/>
<stop offset="1" stop-color="#676F8C"/>
</linearGradient>
<linearGradient id="paint4_linear_2980_90293" x1="32.0168" y1="31.1422" x2="42.5663" y2="28.9485" gradientUnits="userSpaceOnUse">
<stop stop-color="#DCE3FF"/>
<stop offset="1" stop-color="white"/>
</linearGradient>
<linearGradient id="paint5_linear_2980_90293" x1="81.1489" y1="95.8512" x2="110.653" y2="66.3468" gradientUnits="userSpaceOnUse">
<stop stop-color="#DB351F"/>
<stop offset="1" stop-color="#FF6648"/>
</linearGradient>
<clipPath id="clip0_2980_90293">
<rect width="117" height="92" fill="white"/>
</clipPath>
<clipPath id="clip1_2980_90293">
<rect width="36" height="36" fill="white" transform="translate(78 63)"/>
</clipPath>
</defs>
</svg>
